<svg width="18" height="18" viewBox="0 0 18 18" fill="none" xmlns="http://www.w3.org/2000/svg">
    <path fill-rule="evenodd" clip-rule="evenodd" d="M5.625 2.8125C5.00368 2.8125 4.5 3.31618 4.5 3.9375L4.5 14.0625C4.5 14.6838 5.00368 15.1875 5.625 15.1875H10.125C10.7463 15.1875 11.25 14.6838 11.25 14.0625V11.25C11.25 10.9393 11.5018 10.6875 11.8125 10.6875C12.1232 10.6875 12.375 10.9393 12.375 11.25V14.0625C12.375 15.3051 11.3676 16.3125 10.125 16.3125H5.625C4.38236 16.3125 3.375 15.3051 3.375 14.0625L3.375 3.9375C3.375 2.69486 4.38236 1.6875 5.625 1.6875L10.125 1.6875C11.3676 1.6875 12.375 2.69486 12.375 3.9375V6.75C12.375 7.06066 12.1232 7.3125 11.8125 7.3125C11.5018 7.3125 11.25 7.06066 11.25 6.75V3.9375C11.25 3.31618 10.7463 2.8125 10.125 2.8125L5.625 2.8125ZM9.39775 6.35225C9.61742 6.57192 9.61742 6.92808 9.39775 7.14775L8.108 8.4375L16.3125 8.4375C16.6232 8.4375 16.875 8.68934 16.875 9C16.875 9.31066 16.6232 9.5625 16.3125 9.5625L8.108 9.5625L9.39775 10.8523C9.61742 11.0719 9.61742 11.4281 9.39775 11.6477C9.17808 11.8674 8.82192 11.8674 8.60225 11.6477L6.35225 9.39775C6.13258 9.17808 6.13258 8.82192 6.35225 8.60225L8.60225 6.35225C8.82192 6.13258 9.17808 6.13258 9.39775 6.35225Z" fill="#F1F5F9"/>
</svg>
