<svg width="18" height="18" viewBox="0 0 18 18" fill="none" xmlns="http://www.w3.org/2000/svg">
    <path fill-rule="evenodd" clip-rule="evenodd" d="M5.625 3.9375C5.625 2.69486 6.63236 1.6875 7.875 1.6875H10.125C11.3676 1.6875 12.375 2.69486 12.375 3.9375V4.09123C13.0743 4.15525 13.768 4.23897 14.4555 4.34184C15.5461 4.50501 16.3125 5.45372 16.3125 6.52927V8.80417C16.3125 9.71253 15.7623 10.5684 14.8603 10.8683C13.0174 11.481 11.0469 11.8125 9.00003 11.8125C6.95315 11.8125 4.98257 11.481 3.1397 10.8683C2.23773 10.5684 1.6875 9.71251 1.6875 8.80415V6.52927C1.6875 5.45372 2.45393 4.50501 3.54447 4.34184C4.23195 4.23897 4.92565 4.15525 5.625 4.09123V3.9375ZM11.25 3.9375V4.00562C10.5057 3.96042 9.75552 3.9375 9.00001 3.9375C8.24449 3.9375 7.49426 3.96042 6.75 4.00562V3.9375C6.75 3.31618 7.25368 2.8125 7.875 2.8125H10.125C10.7463 2.8125 11.25 3.31618 11.25 3.9375ZM9 10.125C9.31066 10.125 9.5625 9.87316 9.5625 9.5625C9.5625 9.25184 9.31066 9 9 9C8.68934 9 8.4375 9.25184 8.4375 9.5625C8.4375 9.87316 8.68934 10.125 9 10.125Z" fill="#FAFAFA"/>
    <path d="M2.25 13.8V11.7029C2.41728 11.7947 2.59573 11.873 2.78478 11.9358C4.74065 12.5861 6.83101 12.9375 9.00003 12.9375C11.169 12.9375 13.2594 12.5861 15.2152 11.9359C15.4043 11.873 15.5827 11.7947 15.75 11.703V13.8C15.75 14.8889 14.9646 15.8456 13.8576 15.9926C12.2682 16.2036 10.6466 16.3125 9 16.3125C7.35335 16.3125 5.73185 16.2036 4.14235 15.9926C3.03543 15.8456 2.25 14.8889 2.25 13.8Z" fill="#FAFAFA"/>
</svg>
