<svg width="122" height="25" viewBox="0 0 122 25" fill="none" xmlns="http://www.w3.org/2000/svg">
    <path d="M23.8108 8.01412H15.7432V0H8.01165C8.01165 4.42738 4.42601 8.01412 0 8.01412V15.748H8.01165V23.7622H15.7432C15.7432 19.3348 19.3848 15.748 23.8108 15.748V8.01412Z" fill="url(#paint0_linear_81_7778)"/>
    <path d="M37.5161 20.4001V8.40012H33.8105V6.09612H43.7945V8.40012H40.1465V20.4001H37.5161Z" fill="#FAFAFA"/>
    <path d="M44.033 20.4001V9.95532H46.3946V12.2785L46.2026 11.9329C46.4458 11.1521 46.8234 10.6081 47.3354 10.3009C47.8602 9.99372 48.4874 9.84012 49.217 9.84012H49.8314V12.0673H48.929C48.2122 12.0673 47.6362 12.2913 47.201 12.7393C46.7658 13.1745 46.5482 13.7889 46.5482 14.5825V20.4001H44.033Z" fill="#FAFAFA"/>
    <path d="M54.9391 20.6305C54.1327 20.6305 53.4287 20.4513 52.8271 20.0929C52.2383 19.7345 51.7839 19.2353 51.4639 18.5953C51.1567 17.9553 51.0031 17.2065 51.0031 16.3489V9.95532H53.5183V16.1377C53.5183 16.5729 53.6015 16.9569 53.7679 17.2897C53.9471 17.6097 54.1967 17.8657 54.5167 18.0577C54.8495 18.2369 55.2207 18.3265 55.6303 18.3265C56.0399 18.3265 56.4047 18.2369 56.7247 18.0577C57.0447 17.8657 57.2943 17.6033 57.4735 17.2705C57.6527 16.9377 57.7423 16.5409 57.7423 16.0801V9.95532H60.2575V20.4001H57.8767V18.3457L58.0879 18.7105C57.8447 19.3505 57.4415 19.8305 56.8783 20.1505C56.3279 20.4705 55.6815 20.6305 54.9391 20.6305Z" fill="#FAFAFA"/>
    <path d="M67.9139 20.6305C67.0051 20.6305 66.1603 20.4641 65.3795 20.1313C64.6115 19.7985 63.9459 19.3377 63.3827 18.7489C62.8323 18.1473 62.4291 17.4497 62.1731 16.6561L64.3427 15.7153C64.6883 16.5345 65.1875 17.1809 65.8403 17.6545C66.4931 18.1153 67.2291 18.3457 68.0483 18.3457C68.5091 18.3457 68.9059 18.2753 69.2387 18.1345C69.5843 17.9809 69.8467 17.7761 70.0259 17.5201C70.2179 17.2641 70.3139 16.9569 70.3139 16.5985C70.3139 16.1761 70.1859 15.8305 69.9299 15.5617C69.6867 15.2801 69.3155 15.0625 68.8163 14.9089L66.0707 14.0257C64.9571 13.6801 64.1187 13.1617 63.5555 12.4705C62.9923 11.7793 62.7107 10.9665 62.7107 10.0321C62.7107 9.21292 62.9091 8.48972 63.3059 7.86252C63.7155 7.23532 64.2787 6.74892 64.9955 6.40332C65.7251 6.04492 66.5571 5.86572 67.4915 5.86572C68.3491 5.86572 69.1363 6.01932 69.8531 6.32652C70.5699 6.62092 71.1843 7.03692 71.6963 7.57452C72.2211 8.09932 72.6115 8.72012 72.8675 9.43692L70.7171 10.3969C70.4355 9.68012 70.0131 9.12972 69.4499 8.74572C68.8867 8.34892 68.2339 8.15052 67.4915 8.15052C67.0563 8.15052 66.6723 8.22732 66.3395 8.38092C66.0067 8.52172 65.7443 8.72652 65.5523 8.99532C65.3731 9.25132 65.2835 9.55852 65.2835 9.91692C65.2835 10.3137 65.4115 10.6657 65.6675 10.9729C65.9235 11.2673 66.3139 11.4977 66.8387 11.6641L69.4691 12.4897C70.6083 12.8609 71.4595 13.3729 72.0227 14.0257C72.5987 14.6785 72.8867 15.4849 72.8867 16.4449C72.8867 17.2641 72.6755 17.9873 72.2531 18.6145C71.8307 19.2417 71.2483 19.7345 70.5059 20.0929C69.7635 20.4513 68.8995 20.6305 67.9139 20.6305Z" fill="#FAFAFA"/>
    <path d="M80.0571 20.6305C79.0203 20.6305 78.0859 20.3937 77.2539 19.9201C76.4347 19.4337 75.7883 18.7809 75.3147 17.9617C74.8411 17.1297 74.6043 16.1953 74.6043 15.1585C74.6043 14.1217 74.8411 13.1937 75.3147 12.3745C75.7883 11.5553 76.4347 10.9089 77.2539 10.4353C78.0859 9.96172 79.0203 9.72492 80.0571 9.72492C80.7995 9.72492 81.4907 9.85932 82.1307 10.1281C82.7707 10.3841 83.3211 10.7425 83.7819 11.2033C84.2555 11.6513 84.5947 12.1889 84.7995 12.8161L82.5915 13.7761C82.3995 13.2513 82.0731 12.8289 81.6123 12.5089C81.1643 12.1889 80.6459 12.0289 80.0571 12.0289C79.5067 12.0289 79.0139 12.1633 78.5787 12.4321C78.1563 12.7009 77.8235 13.0721 77.5803 13.5457C77.3371 14.0193 77.2155 14.5633 77.2155 15.1777C77.2155 15.7921 77.3371 16.3361 77.5803 16.8097C77.8235 17.2833 78.1563 17.6545 78.5787 17.9233C79.0139 18.1921 79.5067 18.3265 80.0571 18.3265C80.6587 18.3265 81.1835 18.1665 81.6315 17.8465C82.0795 17.5265 82.3995 17.0977 82.5915 16.5601L84.7995 17.5585C84.5947 18.1473 84.2619 18.6785 83.8011 19.1521C83.3403 19.6129 82.7899 19.9777 82.1499 20.2465C81.5099 20.5025 80.8123 20.6305 80.0571 20.6305Z" fill="#FAFAFA"/>
    <path d="M89.8385 20.6305C89.1089 20.6305 88.4753 20.5089 87.9377 20.2657C87.4001 20.0225 86.9841 19.6769 86.6897 19.2289C86.3953 18.7681 86.2481 18.2369 86.2481 17.6353C86.2481 17.0593 86.3761 16.5473 86.6321 16.0993C86.8881 15.6385 87.2849 15.2545 87.8225 14.9473C88.3601 14.6401 89.0385 14.4225 89.8577 14.2945L93.2753 13.7377V15.6577L90.3377 16.1569C89.8385 16.2465 89.4673 16.4065 89.2241 16.6369C88.9809 16.8673 88.8593 17.1681 88.8593 17.5393C88.8593 17.8977 88.9937 18.1857 89.2625 18.4033C89.5441 18.6081 89.8897 18.7105 90.2993 18.7105C90.8241 18.7105 91.2849 18.6017 91.6817 18.3841C92.0913 18.1537 92.4049 17.8401 92.6225 17.4433C92.8529 17.0465 92.9681 16.6113 92.9681 16.1377V13.4497C92.9681 13.0017 92.7889 12.6305 92.4305 12.3361C92.0849 12.0289 91.6241 11.8753 91.0481 11.8753C90.5105 11.8753 90.0305 12.0225 89.6081 12.3169C89.1985 12.5985 88.8977 12.9761 88.7057 13.4497L86.6513 12.4513C86.8561 11.9009 87.1761 11.4273 87.6113 11.0305C88.0593 10.6209 88.5841 10.3009 89.1857 10.0705C89.7873 9.84012 90.4401 9.72492 91.1441 9.72492C92.0017 9.72492 92.7569 9.88492 93.4097 10.2049C94.0625 10.5121 94.5681 10.9473 94.9265 11.5105C95.2977 12.0609 95.4833 12.7073 95.4833 13.4497V20.4001H93.1025V18.6145L93.6401 18.5761C93.3713 19.0241 93.0513 19.4017 92.6801 19.7089C92.3089 20.0033 91.8865 20.2337 91.4129 20.4001C90.9393 20.5537 90.4145 20.6305 89.8385 20.6305Z" fill="#FAFAFA"/>
    <path d="M97.808 24.2401V9.95532H100.17V12.0289L99.9392 11.5105C100.298 10.9473 100.784 10.5121 101.398 10.2049C102.013 9.88492 102.723 9.72492 103.53 9.72492C104.515 9.72492 105.405 9.96812 106.198 10.4545C106.992 10.9409 107.619 11.5937 108.08 12.4129C108.554 13.2321 108.79 14.1537 108.79 15.1777C108.79 16.1889 108.56 17.1105 108.099 17.9425C107.638 18.7745 107.011 19.4337 106.218 19.9201C105.424 20.3937 104.522 20.6305 103.51 20.6305C102.755 20.6305 102.058 20.4833 101.418 20.1889C100.79 19.8817 100.291 19.4465 99.92 18.8833L100.323 18.3841V24.2401H97.808ZM103.222 18.3265C103.798 18.3265 104.31 18.1921 104.758 17.9233C105.206 17.6545 105.552 17.2833 105.795 16.8097C106.051 16.3361 106.179 15.7921 106.179 15.1777C106.179 14.5633 106.051 14.0257 105.795 13.5649C105.552 13.0913 105.206 12.7201 104.758 12.4513C104.31 12.1697 103.798 12.0289 103.222 12.0289C102.672 12.0289 102.173 12.1633 101.725 12.4321C101.29 12.7009 100.944 13.0785 100.688 13.5649C100.445 14.0385 100.323 14.5761 100.323 15.1777C100.323 15.7921 100.445 16.3361 100.688 16.8097C100.944 17.2833 101.29 17.6545 101.725 17.9233C102.173 18.1921 102.672 18.3265 103.222 18.3265Z" fill="#FAFAFA"/>
    <path d="M115.662 20.6305C114.586 20.6305 113.646 20.3873 112.839 19.9009C112.033 19.4145 111.406 18.7553 110.958 17.9233C110.51 17.0913 110.286 16.1697 110.286 15.1585C110.286 14.1089 110.51 13.1809 110.958 12.3745C111.418 11.5553 112.039 10.9089 112.82 10.4353C113.614 9.96172 114.497 9.72492 115.47 9.72492C116.289 9.72492 117.006 9.85932 117.62 10.1281C118.247 10.3969 118.778 10.7681 119.214 11.2417C119.649 11.7153 119.982 12.2593 120.212 12.8737C120.442 13.4753 120.558 14.1281 120.558 14.8321C120.558 15.0113 120.545 15.1969 120.519 15.3889C120.506 15.5809 120.474 15.7473 120.423 15.8881H112.359V13.9681H119.002L117.812 14.8705C117.927 14.2817 117.895 13.7569 117.716 13.2961C117.55 12.8353 117.268 12.4705 116.871 12.2017C116.487 11.9329 116.02 11.7985 115.47 11.7985C114.945 11.7985 114.478 11.9329 114.068 12.2017C113.658 12.4577 113.345 12.8417 113.127 13.3537C112.922 13.8529 112.846 14.4609 112.897 15.1777C112.846 15.8177 112.929 16.3873 113.146 16.8865C113.377 17.3729 113.71 17.7505 114.145 18.0193C114.593 18.2881 115.105 18.4225 115.681 18.4225C116.257 18.4225 116.743 18.3009 117.14 18.0577C117.55 17.8145 117.87 17.4881 118.1 17.0785L120.135 18.0769C119.93 18.5761 119.61 19.0177 119.175 19.4017C118.74 19.7857 118.222 20.0865 117.62 20.3041C117.031 20.5217 116.378 20.6305 115.662 20.6305Z" fill="#FAFAFA"/>
    <defs>
        <linearGradient id="paint0_linear_81_7778" x1="14.5" y1="5" x2="21" y2="16" gradientUnits="userSpaceOnUse">
            <stop stop-color="#E9D5FF"/>
            <stop offset="1" stop-color="#D9F99D"/>
        </linearGradient>
    </defs>
</svg>
