<svg width="18" height="18" viewBox="0 0 18 18" fill="none" xmlns="http://www.w3.org/2000/svg">
    <path fill-rule="evenodd" clip-rule="evenodd" d="M2.25 4.5C2.25 3.25736 3.25736 2.25 4.5 2.25H6.1875C7.43014 2.25 8.4375 3.25736 8.4375 4.5V6.1875C8.4375 7.43014 7.43014 8.4375 6.1875 8.4375H4.5C3.25736 8.4375 2.25 7.43014 2.25 6.1875V4.5ZM9.5625 4.5C9.5625 3.25736 10.5699 2.25 11.8125 2.25H13.5C14.7426 2.25 15.75 3.25736 15.75 4.5V6.1875C15.75 7.43014 14.7426 8.4375 13.5 8.4375H11.8125C10.5699 8.4375 9.5625 7.43014 9.5625 6.1875V4.5ZM2.25 11.8125C2.25 10.5699 3.25736 9.5625 4.5 9.5625H6.1875C7.43014 9.5625 8.4375 10.5699 8.4375 11.8125V13.5C8.4375 14.7426 7.43014 15.75 6.1875 15.75H4.5C3.25736 15.75 2.25 14.7426 2.25 13.5V11.8125ZM9.5625 11.8125C9.5625 10.5699 10.5699 9.5625 11.8125 9.5625H13.5C14.7426 9.5625 15.75 10.5699 15.75 11.8125V13.5C15.75 14.7426 14.7426 15.75 13.5 15.75H11.8125C10.5699 15.75 9.5625 14.7426 9.5625 13.5V11.8125Z" fill="#FAFAFA"/>
</svg>
