<svg width="48" height="48" viewBox="0 0 48 48" fill="none" xmlns="http://www.w3.org/2000/svg">
    <path fill-rule="evenodd" clip-rule="evenodd" d="M21 7.5C14.3726 7.5 9 12.8726 9 19.5C9 19.8337 9.01366 20.1645 9.04048 20.4918C5.47254 22.1681 3 25.7937 3 30C3 35.799 7.70101 40.5 13.5 40.5H36C40.9706 40.5 45 36.4706 45 31.5C45 28.1305 43.1489 25.1963 40.4116 23.654C40.4698 23.2773 40.5 22.8918 40.5 22.5C40.5 18.3579 37.1421 15 33 15C32.7118 15 32.427 15.0163 32.1466 15.0482C30.3786 10.6256 26.0559 7.5 21 7.5ZM25.5 19.5C25.5 18.6716 24.8284 18 24 18C23.1716 18 22.5 18.6716 22.5 19.5V29.3787L19.0607 25.9393C18.4749 25.3536 17.5251 25.3536 16.9393 25.9393C16.3536 26.5251 16.3536 27.4749 16.9393 28.0607L22.9393 34.0607C23.5251 34.6464 24.4749 34.6464 25.0607 34.0607L31.0607 28.0607C31.6464 27.4749 31.6464 26.5251 31.0607 25.9393C30.4749 25.3536 29.5251 25.3536 28.9393 25.9393L25.5 29.3787V19.5Z" fill="#0F172A"/>
</svg>
